<?xml version="1.0" encoding="iso-8859-1"?>
<!-- Generator: Adobe Illustrator 17.1.0, SVG Export Plug-In . SVG Version: 6.00 Build 0)  -->
<!DOCTYPE svg PUBLIC "-//W3C//DTD SVG 1.1//EN" "http://www.w3.org/Graphics/SVG/1.1/DTD/svg11.dtd">
<svg version="1.1" id="Capa_1" xmlns="http://www.w3.org/2000/svg" xmlns:xlink="http://www.w3.org/1999/xlink" x="0px" y="0px"
	 viewBox="0 0 512.027 512.027" style="enable-background:new 0 0 512.027 512.027;" xml:space="preserve">
<path d="M488.037,144c0-0.18-0.015-0.355-0.027-0.532V40.012c0-9.386-4.093-40.009-56.759-40.009h-63.156
	c-0.02,0-0.038-0.003-0.058-0.003c-22.056,0-40,17.944-40,40c0,0.324,0.025,0.643,0.063,0.957v238.387
	c0,20.204-8.601,39.621-23.597,53.271c-15.188,13.825-34.866,20.372-55.41,18.439c-36.488-3.436-65.071-35.964-65.071-74.054
	V144.309c0.004-0.103,0.016-0.205,0.016-0.309s-0.012-0.206-0.016-0.309V40.309c0.004-0.103,0.016-0.205,0.016-0.309
	c0-22.056-17.944-40-40-40c-0.02,0-0.038,0.003-0.058,0.003h-79.98c-22.061,0-40.009,17.948-40.009,40.009v235.239
	c0,61.309,23.121,119.615,65.104,164.177c42.343,44.945,99.126,70.69,159.892,72.494c2.37,0.07,4.73,0.105,7.09,0.105
	c60.61-0.001,117.702-23.138,161.434-65.592c22.056-21.41,39.396-46.498,51.542-74.567c12.58-29.072,18.958-59.976,18.958-91.852
	V144.532C488.022,144.355,488.037,144.18,488.037,144z M406.365,434.955c-40.721,39.53-93.87,61.074-150.304,61.072
	c-2.193,0-4.398-0.033-6.601-0.098c-56.493-1.676-109.31-25.638-148.721-67.472C61.564,386.875,39.99,332.465,39.99,275.251V152
	h88.047c4.418,0,8-3.582,8-8s-3.582-8-8-8H39.99V40.012c0-13.239,10.771-24.009,24.009-24.009h80.038
	c0.013,0,0.026-0.002,0.039-0.002c13.147,0.021,23.845,10.667,23.956,23.793c-0.002,0.069-0.01,0.136-0.01,0.206v96h-7.986
	c-4.418,0-8,3.582-8,8s3.582,8,8,8h7.986v125c0,22.243,8.018,43.7,22.576,60.418c14.802,16.998,35.043,27.498,56.995,29.565
	c2.883,0.271,5.748,0.406,8.597,0.406c21.936-0.001,42.656-7.989,59.084-22.942c18.32-16.675,28.827-40.405,28.827-65.103V152
	h87.938c4.418,0,8-3.582,8-8s-3.582-8-8-8H344.1V40c0-0.277-0.014-0.551-0.042-0.82c0.434-12.842,11-23.158,23.941-23.179
	c0.013,0,0.026,0.002,0.039,0.002h63.214c25.903,0,40.759,8.751,40.759,24.009V136h-7.975c-4.418,0-8,3.582-8,8s3.582,8,8,8h7.975
	v128.016C472.01,338.835,448.697,393.86,406.365,434.955z"/>
<g>
</g>
<g>
</g>
<g>
</g>
<g>
</g>
<g>
</g>
<g>
</g>
<g>
</g>
<g>
</g>
<g>
</g>
<g>
</g>
<g>
</g>
<g>
</g>
<g>
</g>
<g>
</g>
<g>
</g>
</svg>
