<?xml version="1.0" encoding="UTF-8" standalone="no"?>
<svg
   xmlns:osb="http://www.openswatchbook.org/uri/2009/osb"
   xmlns:dc="http://purl.org/dc/elements/1.1/"
   xmlns:cc="http://creativecommons.org/ns#"
   xmlns:rdf="http://www.w3.org/1999/02/22-rdf-syntax-ns#"
   xmlns:svg="http://www.w3.org/2000/svg"
   xmlns="http://www.w3.org/2000/svg"
   xmlns:sodipodi="http://sodipodi.sourceforge.net/DTD/sodipodi-0.dtd"
   xmlns:inkscape="http://www.inkscape.org/namespaces/inkscape"
   id="SVGRoot"
   version="1.1"
   viewBox="0 0 600 600"
   height="600px"
   width="600px"
   inkscape:version="1.0 (4035a4fb49, 2020-05-01)"
   sodipodi:docname="sinapsLogo.svg"
   inkscape:export-filename="C:\Disk D\Dosyalarim\Sinaps Tasarım\sinapsLogoDeneme\Sinaps·Giriş_dosyalar\sinapsLogo5.png"
   inkscape:export-xdpi="96"
   inkscape:export-ydpi="96">
  <defs
     id="defs10">
    <inkscape:path-effect
       effect="bspline"
       id="path-effect887"
       is_visible="true"
       lpeversion="1"
       weight="33.333333"
       steps="2"
       helper_size="0"
       apply_no_weight="true"
       apply_with_weight="true"
       only_selected="false" />
    <inkscape:path-effect
       only_selected="false"
       apply_with_weight="true"
       apply_no_weight="true"
       helper_size="0"
       steps="2"
       weight="33.333333"
       lpeversion="1"
       is_visible="true"
       id="path-effect868"
       effect="bspline" />
    <linearGradient
       id="linearGradient2993"
       osb:paint="solid">
      <stop
         style="stop-color:#976492;stop-opacity:1;"
         offset="0"
         id="stop2991" />
    </linearGradient>
    <inkscape:path-effect
       effect="bspline"
       id="path-effect967"
       is_visible="true"
       lpeversion="1"
       weight="33.333333"
       steps="2"
       helper_size="0"
       apply_no_weight="true"
       apply_with_weight="true"
       only_selected="false" />
    <clipPath
       id="clipPath2313"
       clipPathUnits="userSpaceOnUse">
      <g
         id="use2315"
         inkscape:label="Clip">
        <g
           id="g891">
          <path
             id="path865"
             style="fill:#0c8383;fill-opacity:1;fill-rule:evenodd;stroke-width:0.985338;image-rendering:auto"
             d="M 299.9082,2.0195312 C 135.07582,2.0195312 2.3769531,134.7184 2.3769531,299.55078 v 0.72461 c 0,34.62195 5.8734174,67.81717 16.6503909,98.67188 l 8.382812,-2.27539 c 13.3679,-3.62906 42.789246,-11.67404 65.38086,-17.87696 143.094464,-39.28909 226.609074,-45.77789 271.789064,-52.13086 12.97601,-1.82461 37.55465,-3.31303 37.55465,-3.31303 0,0 73.56122,-7.98058 68.58367,-1.18896 -9.1115,12.43219 -100.4234,23.55009 -166.56215,69.47768 -79.77642,55.39777 -110.5109,88.96457 -137.92383,122.27431 -9.09256,11.04849 -17.81857,23.99632 -25.66406,37.92578 46.01104,29.12231 100.63311,45.9668 159.33984,45.9668 164.83238,0 297.53125,-132.69887 297.53125,-297.53125 v -0.72461 c 0,-34.64334 -5.88216,-67.8557 -16.67187,-98.72656 l -9.23828,2.5293 c -13.36001,3.65799 -42.76367,11.76769 -65.3418,18.01953 -143.00901,39.59898 -225.48035,50.26988 -270.64648,56.7207 -12.97202,1.85273 -37.9043,3.4375 -37.9043,3.4375 0,0 -60.37949,6.30053 -55.41667,-0.50187 9.08454,-12.45188 91.82148,-22.79139 157.86059,-68.86215 79.65622,-55.57045 105.03179,-92.38607 132.37248,-125.755121 9.26196,-11.30414 18.141,-24.582802 26.08399,-38.86914 C 412.67432,18.695763 358.31361,2.0195313 299.9082,2.0195312 Z M 458.53711,47.542969 c 56.36802,35.454886 99.87336,89.314491 122.23047,153.281251 l 15.05273,-4.1211 0.10157,-81.05273 0.0996,-81.052734 -31.73242,20.363282 C 556.69167,59.836327 581.59256,11.69391 574.47266,8.0214844 565.56284,3.425814 561.50726,3.048279 519.20312,2.875 L 479.16211,2.7109375 475.26953,12.427734 C 470.45446,24.444703 464.78496,36.30553 458.53711,47.542969 Z M 140.56836,551.83984 C 84.527779,516.36942 41.284708,462.67057 19.027344,398.94727 L 3.1035156,403.26953 2.828125,484.32227 2.5527344,565.375 l 3.7148437,7.64453 c 3.9462999,8.1189 10.6634799,15.29068 17.7753909,18.97852 8.899855,4.61496 12.956101,5.0007 55.259765,5.26562 l 40.039066,0.25195 3.91406,-9.71093 c 4.96957,-12.32517 10.84249,-24.47751 17.3125,-35.96485 z"
             sodipodi:nodetypes="sssccsscssscsssccsscssscscccccssscccccccccscccc" />
          <g
             id="g877">
            <path
               sodipodi:nodetypes="cc"
               id="path867"
               d="M 2.9131622,39.069444 40.793883,2.7039528"
               style="opacity:1;fill:none;fill-rule:evenodd;stroke:#0c8383;stroke-width:1px;stroke-linecap:butt;stroke-linejoin:miter;stroke-opacity:1" />
            <path
               id="path869"
               d="M 2.3766971,2.0203052 2.9354658,42.183332"
               style="display:inline;fill:none;fill-rule:evenodd;stroke:#0c8383;stroke-width:1px;stroke-linecap:butt;stroke-linejoin:miter;stroke-opacity:1" />
            <path
               id="path871"
               d="M 1.8647017,2.0374023 40.794177,2.6868557"
               style="display:inline;fill:none;fill-rule:evenodd;stroke:#0c8383;stroke-width:1px;stroke-linecap:butt;stroke-linejoin:miter;stroke-opacity:1" />
            <path
               id="path873"
               d="M 3.1373624,18.788938 C 3.0139318,9.8926619 2.9181506,2.6064378 2.9245152,2.5973283 c 0.00636,-0.00911 6.7824563,0.09743 15.0579818,0.2367545 8.275525,0.1393244 15.474879,0.2549999 15.998565,0.2570567 l 0.952154,0.00374 -1.14259,0.3093158 C 26.20438,5.4579028 19.664021,9.2972224 14.255526,14.871682 9.0916004,20.194067 5.401762,26.827291 3.6196753,33.991754 c -0.1295586,0.52086 -0.2405859,0.952691 -0.2467274,0.959625 -0.00614,0.0069 -0.112155,-7.266166 -0.2355855,-16.162441 z"
               style="opacity:1;fill:#0c8383;fill-opacity:1;fill-rule:evenodd;stroke:#0c8383;stroke-width:1;stroke-opacity:1" />
            <path
               id="path875"
               d="M 3.25,28.375 3.125,31 c 0.245915,1.072538 1.125,2.034597 1.125,3.125 0,0.774706 -0.8702927,0.625 -0.625,0.625"
               style="fill:none;stroke:#0c8383;stroke-width:1px;stroke-linecap:butt;stroke-linejoin:miter;stroke-opacity:1" />
          </g>
          <g
             id="g889"
             transform="matrix(-1.1171538,0.01262642,-0.01410678,-0.99992028,600.12309,599.79659)"
             style="stroke-width:0.946076">
            <path
               style="opacity:1;fill:none;fill-rule:evenodd;stroke:#0c8383;stroke-width:0.946076px;stroke-linecap:butt;stroke-linejoin:miter;stroke-opacity:1"
               d="M 2.9131622,39.069444 40.793883,2.7039528"
               id="path879"
               sodipodi:nodetypes="cc" />
            <path
               style="display:inline;fill:none;fill-rule:evenodd;stroke:#0c8383;stroke-width:0.946076px;stroke-linecap:butt;stroke-linejoin:miter;stroke-opacity:1"
               d="M 2.3766971,2.0203052 2.9354658,42.183332"
               id="path881" />
            <path
               style="display:inline;fill:none;fill-rule:evenodd;stroke:#0c8383;stroke-width:0.946076px;stroke-linecap:butt;stroke-linejoin:miter;stroke-opacity:1"
               d="M 1.8647017,2.0374023 40.794177,2.6868557"
               id="path883" />
            <path
               style="opacity:1;fill:#0c8383;fill-opacity:1;fill-rule:evenodd;stroke:#0c8383;stroke-width:0.946076;stroke-opacity:1"
               d="M 3.1373624,18.788938 C 3.0139318,9.8926619 2.9181506,2.6064378 2.9245152,2.5973283 c 0.00636,-0.00911 6.7824563,0.09743 15.0579818,0.2367545 8.275525,0.1393244 15.474879,0.2549999 15.998565,0.2570567 l 0.952154,0.00374 -1.14259,0.3093158 C 26.20438,5.4579028 19.664021,9.2972224 14.255526,14.871682 9.0916004,20.194067 5.401762,26.827291 3.6196753,33.991754 c -0.1295586,0.52086 -0.2405859,0.952691 -0.2467274,0.959625 -0.00614,0.0069 -0.112155,-7.266166 -0.2355855,-16.162441 z"
               id="path885" />
            <path
               style="fill:none;stroke:#0c8383;stroke-width:0.946076px;stroke-linecap:butt;stroke-linejoin:miter;stroke-opacity:1"
               d="M 3.25,28.375 3.125,31 c 0.245915,1.072538 1.125,2.034597 1.125,3.125 0,0.774706 -0.8702927,0.625 -0.625,0.625"
               id="path887" />
          </g>
        </g>
      </g>
    </clipPath>
    <clipPath
       clipPathUnits="userSpaceOnUse"
       id="clipPath927">
      <g
         inkscape:label="Clip"
         id="use929">
        <g
           id="g1000">
          <g
             id="g986">
            <path
               style="opacity:1;fill:none;fill-rule:evenodd;stroke:#0c8383;stroke-width:1px;stroke-linecap:butt;stroke-linejoin:miter;stroke-opacity:1"
               d="M 2.9131622,39.069444 40.793883,2.7039528"
               id="path978"
               sodipodi:nodetypes="cc" />
            <path
               style="display:inline;fill:none;fill-rule:evenodd;stroke:#0c8383;stroke-width:1px;stroke-linecap:butt;stroke-linejoin:miter;stroke-opacity:1"
               d="M 2.3766971,2.0203052 2.9354658,42.183332"
               id="path980" />
            <path
               style="display:inline;fill:none;fill-rule:evenodd;stroke:#0c8383;stroke-width:1px;stroke-linecap:butt;stroke-linejoin:miter;stroke-opacity:1"
               d="M 1.8647017,2.0374023 40.794177,2.6868557"
               id="path982" />
            <path
               style="fill:none;stroke:#0c8383;stroke-width:1px;stroke-linecap:butt;stroke-linejoin:miter;stroke-opacity:1"
               d="M 3.25,28.375 3.125,31 c 0.245915,1.072538 1.125,2.034597 1.125,3.125 0,0.774706 -0.8702927,0.625 -0.625,0.625"
               id="path984" />
          </g>
          <g
             style="stroke-width:0.946076"
             transform="matrix(-1.1171538,0.01262642,-0.01410678,-0.99992028,600.12309,599.79659)"
             id="g996">
            <path
               sodipodi:nodetypes="cc"
               id="path988"
               d="M 2.9131622,39.069444 40.793883,2.7039528"
               style="opacity:1;fill:none;fill-rule:evenodd;stroke:#0c8383;stroke-width:0.946076px;stroke-linecap:butt;stroke-linejoin:miter;stroke-opacity:1" />
            <path
               id="path990"
               d="M 2.3766971,2.0203052 2.9354658,42.183332"
               style="display:inline;fill:none;fill-rule:evenodd;stroke:#0c8383;stroke-width:0.946076px;stroke-linecap:butt;stroke-linejoin:miter;stroke-opacity:1" />
            <path
               id="path992"
               d="M 1.8647017,2.0374023 40.794177,2.6868557"
               style="display:inline;fill:none;fill-rule:evenodd;stroke:#0c8383;stroke-width:0.946076px;stroke-linecap:butt;stroke-linejoin:miter;stroke-opacity:1" />
            <path
               id="path994"
               d="M 3.25,28.375 3.125,31 c 0.245915,1.072538 1.125,2.034597 1.125,3.125 0,0.774706 -0.8702927,0.625 -0.625,0.625"
               style="fill:none;stroke:#0c8383;stroke-width:0.946076px;stroke-linecap:butt;stroke-linejoin:miter;stroke-opacity:1" />
          </g>
          <path
             sodipodi:nodetypes="sssccsscssscsssccsscssscsccccc"
             d="m 943.38338,-24.365246 c -164.83238,0 -297.53125,132.698866 -297.53125,297.531246 v 0.72461 c 0,34.62195 5.87342,67.81717 16.65039,98.67188 l 8.38282,-2.27539 c 13.3679,-3.62906 42.78924,-11.67404 65.38086,-17.87696 143.09446,-39.28909 226.60907,-45.77789 271.7891,-52.13086 12.976,-1.82461 37.5546,-3.31303 37.5546,-3.31303 0,0 73.5612,-7.98058 68.5836,-1.18896 -9.1115,12.43219 -100.4233,23.55009 -166.56207,69.47768 -79.77642,55.39777 -110.5109,88.96457 -137.92383,122.27431 -9.09256,11.04849 -17.81857,23.99632 -25.66406,37.92578 46.01104,29.12231 100.63311,45.9668 159.33984,45.9668 164.83232,0 297.53122,-132.69887 297.53122,-297.53125 V 273.166 c 0,-34.64334 -5.8822,-67.8557 -16.6719,-98.72656 l -9.2383,2.5293 c -13.36,3.65799 -42.7636,11.76769 -65.3418,18.01953 -143.0089,39.59898 -225.48027,50.26988 -270.6464,56.7207 -12.97202,1.85273 -37.9043,3.4375 -37.9043,3.4375 0,0 -60.37949,6.30053 -55.41667,-0.50187 9.08454,-12.45188 91.82148,-22.79139 157.86059,-68.86215 C 1023.212,130.212 1048.5876,93.396384 1075.9283,60.027333 c 9.2619,-11.30414 18.141,-24.582802 26.084,-38.86914 -45.8628,-28.8472063 -100.2235,-45.523439 -158.62892,-45.523439 z m 280.85932,198.804686 -0.8457,-1.17383 z M 662.50252,372.56249 c 0,0 -19.74263,98.2233 0,0 z"
             style="fill:#0c8383;fill-opacity:1;fill-rule:evenodd;stroke-width:0.985338;image-rendering:auto"
             id="path998" />
        </g>
      </g>
    </clipPath>
  </defs>
  <sodipodi:namedview
     id="base"
     pagecolor="#ffffff"
     bordercolor="#666666"
     borderopacity="1.0"
     inkscape:pageopacity="0.0"
     inkscape:pageshadow="2"
     inkscape:zoom="1"
     inkscape:cx="288.45935"
     inkscape:cy="361.50772"
     inkscape:document-units="px"
     inkscape:current-layer="layer1"
     inkscape:document-rotation="0"
     showgrid="false"
     inkscape:window-width="1920"
     inkscape:window-height="1017"
     inkscape:window-x="-8"
     inkscape:window-y="-8"
     inkscape:window-maximized="1" />
  <metadata
     id="metadata13">
    <rdf:RDF>
      <cc:Work
         rdf:about="">
        <dc:format>image/svg+xml</dc:format>
        <dc:type
           rdf:resource="http://purl.org/dc/dcmitype/StillImage" />
        <dc:title />
      </cc:Work>
    </rdf:RDF>
  </metadata>
  <g
     inkscape:label="Katman 1"
     inkscape:groupmode="layer"
     id="layer1">
    <path
       d="M 596.21231,300.93613 A 296.25385,297.39761 0 0 1 300.35531,598.33347 296.25385,297.39761 0 0 1 3.7056836,301.73288 296.25385,297.39761 0 0 1 298.76793,3.5409146 296.25385,297.39761 0 0 1 596.20806,299.34262"
       sodipodi:arc-type="arc"
       sodipodi:open="true"
       sodipodi:end="6.2778271"
       sodipodi:start="0"
       sodipodi:ry="297.39761"
       sodipodi:rx="296.25385"
       sodipodi:cy="300.93613"
       sodipodi:cx="299.95847"
       sodipodi:type="arc"
       id="path915"
       style="fill:#0c8383;fill-opacity:1;fill-rule:evenodd;stroke:#0c8383;stroke-width:1;stroke-opacity:1" />
    <path
       style="opacity:1;fill:#699691;fill-opacity:1;fill-rule:evenodd;stroke:#0c8383;stroke-width:1;stroke-opacity:1"
       d=""
       id="path919" />
    <path
       id="rect23"
       style="opacity:1;fill:#0064b9;fill-opacity:1;fill-rule:evenodd;stroke-width:0.985338;image-rendering:auto"
       d="M 299.91602,3.6757812 C 135.08364,3.6757812 2.3847656,136.37465 2.3847656,301.20703 v 0.72461 c 0,34.62195 5.8734206,67.81717 16.6503904,98.67188 l 8.382813,-2.2754 c 13.3679,-3.62905 42.789239,-11.67403 65.380859,-17.87695 143.094462,-39.28909 226.609032,-45.77789 271.789062,-52.13086 12.976,-1.82461 37.55469,-3.3125 37.55469,-3.3125 0,0 73.56158,-7.98107 68.58398,-1.18945 -9.1115,12.43219 -100.42373,23.55092 -166.5625,69.47852 -79.77642,55.39776 -110.5109,88.96369 -137.92383,122.27343 -9.09256,11.04849 -17.81857,23.99632 -25.66406,37.92578 46.01104,29.12231 100.63312,45.9668 159.33985,45.9668 164.83232,0 297.53125,-132.69887 297.53125,-297.53125 v -0.72461 c 0,-34.64334 -5.88218,-67.8557 -16.67188,-98.72656 l -9.23828,2.5293 c -13.36,3.65799 -42.7636,11.76769 -65.3418,18.01953 -143.0089,39.59898 -225.48035,50.26988 -270.64648,56.7207 -12.97202,1.85273 -37.9043,3.4375 -37.9043,3.4375 0,0 -60.37883,6.30045 -55.41601,-0.50195 9.08454,-12.45188 91.82026,-22.79057 157.85937,-68.86133 79.65618,-55.57045 105.03235,-92.38681 132.37305,-125.755861 9.2619,-11.30414 18.14098,-24.582803 26.08398,-38.86914 C 412.68212,20.352012 358.32144,3.6757813 299.91602,3.6757812 Z" />
  </g>
</svg>
